<svg class="focus:outline-hidden block h-auto py-3 w-[75px]" aria-hidden="true" height="30" viewBox="0 0 150 30" width="150" xmlns="http://www.w3.org/2000/svg">
    <path fill="black" d="M150 19.69c-.532 1.808-.888 3.355-1.485 4.81-.154.378-1.056.647-1.615.65-6.972.027-13.944 0-20.919-.027-.343 0-.686-.17-1.471-.37.426-.172.86-.32 1.303-.446 2.671-.514 3.542-1.336 3.584-4.05.085-5.44.061-10.88 0-16.344-.028-2.145-.775-2.842-2.943-3.26a1.891 1.891 0 0 1-1.23-.653h22.633v4.638l-.343.292c-1.135-3.329-3.845-3.06-6.423-3.06h-6.602v8.33h6.859v2.639h-6.93c0 3.019-.083 5.81.071 8.591.031.51 1.029 1.377 1.574 1.38 3.244.035 6.516.086 9.719-.34 1.33-.213 2.486-1.604 4.218-2.78zM121.282.014c.098 1.58.189 3.114.287 4.677-.35 0-.55.038-.574 0-1.382-2.469-3.729-2.767-6.275-2.705-1.85.048-3.7 0-5.712 0-.063.713-.15 1.255-.15 1.797v14.602c0 3.018-.228 6.207 4.596 6.282l-.35.494H99.428l-.105-.301a9.31 9.31 0 0 1 1.301-.343c1.836-.21 3.026-1.29 3.057-2.967.115-6.43.045-12.863.045-19.695-3.046.151-6.065.103-9.006.546-1.183.178-2.19 1.44-3.544 2.4.154-1.564.305-3.107.473-4.801zM58.364.235a6.76 6.76 0 0 1 1.098-.192c4.744-.024 9.486-.083 14.24 0 1.55.042 3.09.268 4.586.673 2.136.557 4.091 1.558 4.515 3.964.441 2.54-.438 4.723-2.494 6.353-.93.664-1.895 1.28-2.89 1.846.827.763 1.563 1.45 2.324 2.138 3.522 3.2 7.027 6.418 10.58 9.588 2.497 2.231 5.28 3.881 8.84 3.726.139 0 .285.134.837.416-2.796 1.056-5.405 1.72-7.899.856a20.659 20.659 0 0 1-6.422-3.534c-5.248-4.376-10.27-8.99-15.38-13.517a3.198 3.198 0 0 1-.379-.67l2.053-.299c2.181-.316 4.213-.949 5.36-2.998C78.888 5.801 77.05 2.593 73.396 2c-1.73-.286-3.553-.045-5.53-.045a18.72 18.72 0 0 0-.198 1.911c-.027 4.937-.04 9.875-.038 14.813 0 2.98-.09 6.044 4.408 6.291l-.302.44H57.843c.32-.211.657-.397 1.007-.553 3.179-.835 3.717-1.29 3.78-4.493.107-5.332.052-10.657-.028-16.003-.035-2.434-.73-3.094-3.126-3.489-.379-.065-.754-.165-1.133-.247zm-1.72 24.926H44.41l-.094-.338 2.811-1.052c-3.228-6.191-7.155-11.79-10.69-18.138L30.27 16.116c3.882.794 7.517.142 11.176.172-3.871 1.583-7.993 1.596-12.354 1.836l-2.7 5.384 2.78 1.268-.046.314H16.89l-.23-.372c4.14-.656 6.11-3.503 7.994-6.925C16.313 16.961 8.32 14.79 0 15.466c8.664-2.367 17.272-.125 26.016.396 1.418-2.279 2.808-4.514 4.219-6.743 1.557-2.485 3.166-4.94 4.64-7.47C35.594.42 36.543-.121 38.14.024c.445.653.963 1.38 1.44 2.13 3.749 5.901 7.46 11.836 11.252 17.703 1.411 2.19 2.51 4.808 6.03 4.734z"></path>
</svg>