<svg aria-hidden="true" class="icon" xmlns="http://www.w3.org/2000/svg" width="24" height="24"><path fill="currentColor" d="M20.72 8.16H8.61c-.17-.69-.79-1.2-1.52-1.2s-1.35.51-1.52 1.2H3.28a.38.38 0 1 0 0 .76h2.28c.17.69.78 1.2 1.52 1.2s1.35-.51 1.52-1.2h12.11a.38.38 0 1 0 0-.76ZM7.09 9.36c-.32 0-.58-.18-.72-.45a.796.796 0 0 1-.1-.38c0-.14.04-.26.1-.38.14-.26.4-.45.72-.45s.58.19.72.45c.06.11.1.24.1.37 0 .14-.04.26-.1.38a.82.82 0 0 1-.72.45ZM20.72 16.07H8.61c-.17-.69-.79-1.2-1.52-1.2s-1.35.51-1.52 1.2H3.28a.38.38 0 1 0 0 .76h2.28c.17.69.78 1.2 1.52 1.2s1.35-.51 1.52-1.2h12.11a.38.38 0 1 0 0-.76Zm-13.63 1.2a.82.82 0 0 1-.72-.45.787.787 0 0 1-.1-.37c0-.14.04-.26.1-.38.14-.26.4-.45.72-.45s.58.18.72.45c.06.11.1.24.1.38s-.04.26-.1.38a.82.82 0 0 1-.72.45ZM20.72 12.12H19.6c-.17-.69-.78-1.2-1.52-1.2s-1.35.51-1.52 1.2H3.28a.38.38 0 1 0 0 .76h13.27c.17.69.79 1.2 1.52 1.2s1.35-.51 1.52-1.2h1.12a.38.38 0 1 0 0-.76Zm-2.64 1.2a.82.82 0 0 1-.72-.45c-.06-.11-.1-.24-.1-.38s.04-.26.1-.38c.14-.26.4-.45.72-.45s.58.19.72.45c.06.11.1.24.1.38s-.04.26-.1.38a.82.82 0 0 1-.72.45Z"></path></svg>