<svg aria-hidden="true" class="icon w-4 h-4" height="24" viewBox="0 0 18 24" width="18" xmlns="http://www.w3.org/2000/svg"><path fill="currentColor" d="m9 2.34c4.065 0 7.365 2.73 7.365 6.09 0 2.355-4.14 8.325-7.365 12.375-3.375-4.23-7.365-10.125-7.365-12.375 0-3.36 3.3-6.09 7.365-6.09m0-1.5c-4.905 0-8.865 3.39-8.865 7.59 0 4.185 8.865 14.745 8.865 14.745s8.865-10.56 8.865-14.745c0-4.2-3.96-7.59-8.865-7.59z"></path><path fill="currentColor" d="m9 7.05c1.17 0 2.13.945 2.13 2.13 0 1.17-.945 2.13-2.13 2.13s-2.13-.96-2.13-2.13c0-1.185.96-2.13 2.13-2.13m0-1.5c-1.995 0-3.63 1.635-3.63 3.63s1.635 3.63 3.63 3.63 3.63-1.635 3.63-3.63-1.635-3.63-3.63-3.63z"></path></svg>