<svg aria-hidden="true" class="icon w-4 h-4" height="24" viewBox="0 0 24 24" width="24" xmlns="http://www.w3.org/2000/svg"><path fill="currentColor" d="m9.57176471 18.7341176c-4.91294118 0-8.9082353-3.9952941-8.9082353-8.90823525 0-4.91294117 3.99529412-8.90823529 8.9082353-8.90823529 4.91294119 0 8.90823529 3.99529412 8.90823529 8.90823529 0 4.91294115-3.9952941 8.90823525-8.90823529 8.90823525zm0-16.40470584c-4.13647059 0-7.49647059 3.36-7.49647059 7.49647059 0 4.13647055 3.36 7.49647055 7.49647059 7.49647055s7.49647059-3.36 7.49647059-7.49647055c0-4.13647059-3.3741177-7.49647059-7.49647059-7.49647059z"></path><path fill="currentColor" d="m18.604 15.515h1.411v8.018h-1.411z" transform="matrix(.7076126 -.70660061 .70660061 .7076126 -8.149669 19.353029)"></path></svg>