<svg aria-hidden="true" class="icon w-4 h-4" height="24" viewBox="0 0 26 24" width="26" xmlns="http://www.w3.org/2000/svg"><g fill="none"><path d="m17.385 23.475c-2.355 0-4.215-1.11-6.21-2.445-1.47-.99-4.335-3.93-4.455-4.065-.105-.105-2.34-2.505-3.285-3.99-1.305-2.085-2.61-4.56-2.34-7.23.225-2.265 1.425-3.255 3.435-4.2.69-.33 2.1-.69 2.265-.72l.6-.15 3.915 8.16-.6.345s-1.425.81-2.31 1.32c.69 1.08 1.575 2.19 2.505 3.12.105.105 1.68 1.605 2.925 2.52.54-.87 1.38-2.25 1.38-2.25l.36-.6 8.04 4.17-.165.585c-.045.165-.45 1.56-.795 2.25-1.035 2.04-2.49 3.03-4.71 3.18-.195 0-.375 0-.555 0zm-10.815-21.06c-.48.135-1.08.33-1.395.48-1.665.78-2.43 1.41-2.58 3-.225 2.22.945 4.425 2.115 6.285.87 1.38 3.075 3.735 3.105 3.765.015.015 2.865 2.955 4.215 3.855 1.98 1.335 3.66 2.325 5.805 2.175 1.68-.12 2.685-.81 3.48-2.37.165-.315.36-.9.51-1.38l-5.7-2.955c-.48.78-1.275 2.1-1.425 2.34l-.39.63-.63-.39c-1.44-.87-3.72-3.06-3.81-3.15l-.015-.015c-1.2-1.2-2.34-2.7-3.135-4.08l-.375-.645.645-.375c.24-.135 1.575-.9 2.37-1.365z" fill="currentColor"></path><g transform="translate(15)"><path d="m9.15 9.705c0-4.71-3.825-8.535-8.535-8.535" fill="none"></path><path d="m9.9 9.705h-1.5c0-4.29-3.495-7.785-7.785-7.785v-1.5c5.115 0 9.285 4.17 9.285 9.285z" fill="currentColor"></path></g><g transform="translate(15 3)"><path d="m6.18 6.705c0-3.075-2.49-5.565-5.565-5.565" fill="none"></path><path d="m6.93 6.705h-1.5c0-2.655-2.16-4.815-4.815-4.815v-1.5c3.48 0 6.315 2.835 6.315 6.315z" fill="currentColor"></path></g><g transform="translate(15 6)"><path d="m3.18 3.705c0-1.41-1.14-2.565-2.55-2.565" fill="none"></path><path d="m3.93 3.705h-1.5c0-.99-.81-1.815-1.815-1.815v-1.5c1.83.015 3.315 1.5 3.315 3.315z" fill="currentColor"></path></g></g></svg>