<svg aria-hidden="true" class="icon w-4 h-4" width="24" height="24" xmlns="http://www.w3.org/2000/svg" viewBox="0 0 24 24">
    <g transform="translate(1)">
        <path d="M21.701 12.149l-2.795-4.472a1.86 1.86 0 0 0-1.21-.876c-.407-.094-.816-.031-1.193.125l.393-.828a1.948 1.948 0 0 0-.895-2.611l-4.742-2.33c-.77-.375-1.633-.188-2.214.36C8.699.64 7.85 0 6.846 0h-4.49A2.347 2.347 0 0 0 0 2.345v19.31A2.347 2.347 0 0 0 2.355 24h4.507a2.337 2.337 0 0 0 2.23-1.626l11.98-7.552c.44-.281.755-.703.88-1.22a1.912 1.912 0 0 0-.25-1.453zM10.568 2.564l4.742 2.33a.4.4 0 0 1 .173.531L9.202 18.45V4.44l.832-1.704a.414.414 0 0 1 .534-.172zm-2.92 19.09a.776.776 0 0 1-.786.782H2.355a.776.776 0 0 1-.785-.781V2.345c0-.438.346-.781.785-.781h4.507c.44 0 .785.343.785.781v19.31zM20.24 13.51l-9.924 6.238 5.04-10.428 1.696-.954a.37.37 0 0 1 .298-.047.33.33 0 0 1 .236.172l2.795 4.472a.334.334 0 0 1 .047.297.418.418 0 0 1-.188.25z"></path>
        <ellipse cx="4.601" cy="19.919" rx="1" ry="1"></ellipse>
    </g>
</svg>